<mxfile host="app.diagrams.net" modified="2023-08-21T02:18:00.436Z" agent="Mozilla/5.0 (X11; Linux x86_64) AppleWebKit/537.36 (KHTML, like Gecko) Chrome/116.0.0.0 Safari/537.36" etag="Gmxx8Yy1F7yCJCaSc_bX" version="21.6.8" type="github">
  <diagram name="Página-1" id="35HbU1CjlxEVRmwq7WXa">
    <mxGraphModel dx="1912" dy="1071" grid="1" gridSize="10" guides="1" tooltips="1" connect="1" arrows="1" fold="1" page="1" pageScale="1" pageWidth="827" pageHeight="1169" math="1" shadow="0">
      <root>
        <mxCell id="0" />
        <mxCell id="1" parent="0" />
        <mxCell id="EHvD2iD8Bu7HrQftm9rs-176" value="" style="group" vertex="1" connectable="0" parent="1">
          <mxGeometry x="550" y="40" width="390" height="150" as="geometry" />
        </mxCell>
        <mxCell id="EHvD2iD8Bu7HrQftm9rs-23" value="" style="group" vertex="1" connectable="0" parent="EHvD2iD8Bu7HrQftm9rs-176">
          <mxGeometry width="390" height="30" as="geometry" />
        </mxCell>
        <mxCell id="EHvD2iD8Bu7HrQftm9rs-18" value="Convolução 3x3 + Batch normalization + ReLU" style="text;strokeColor=none;fillColor=none;align=left;verticalAlign=middle;whiteSpace=wrap;rounded=0;fontStyle=1;fontColor=#67AB9F;labelBorderColor=none;labelBackgroundColor=none;html=1;fontSize=14;" vertex="1" parent="EHvD2iD8Bu7HrQftm9rs-23">
          <mxGeometry x="60" width="330" height="30" as="geometry" />
        </mxCell>
        <mxCell id="EHvD2iD8Bu7HrQftm9rs-19" value="" style="shape=flexArrow;endArrow=classic;html=1;rounded=0;fillColor=#67AB9F;strokeColor=none;endWidth=9.647956493419215;endSize=5.958199356913183;width=7.974276527331189;" edge="1" parent="EHvD2iD8Bu7HrQftm9rs-23">
          <mxGeometry width="50" height="50" relative="1" as="geometry">
            <mxPoint y="15" as="sourcePoint" />
            <mxPoint x="50" y="14.830000000000013" as="targetPoint" />
          </mxGeometry>
        </mxCell>
        <mxCell id="EHvD2iD8Bu7HrQftm9rs-161" value="" style="group" vertex="1" connectable="0" parent="EHvD2iD8Bu7HrQftm9rs-176">
          <mxGeometry y="30" width="390" height="30" as="geometry" />
        </mxCell>
        <mxCell id="EHvD2iD8Bu7HrQftm9rs-162" value="Max pooling 2x2" style="text;strokeColor=none;fillColor=none;align=left;verticalAlign=middle;whiteSpace=wrap;rounded=0;fontStyle=1;fontColor=#EA6B66;labelBorderColor=none;labelBackgroundColor=none;html=1;fontSize=14;" vertex="1" parent="EHvD2iD8Bu7HrQftm9rs-161">
          <mxGeometry x="60" width="330" height="30" as="geometry" />
        </mxCell>
        <mxCell id="EHvD2iD8Bu7HrQftm9rs-163" value="" style="shape=flexArrow;endArrow=classic;html=1;rounded=0;fillColor=#EA6B66;strokeColor=none;endWidth=9.647956493419215;endSize=5.958199356913183;width=7.974276527331189;" edge="1" parent="EHvD2iD8Bu7HrQftm9rs-161">
          <mxGeometry width="50" height="50" relative="1" as="geometry">
            <mxPoint y="15" as="sourcePoint" />
            <mxPoint x="50" y="14.830000000000013" as="targetPoint" />
          </mxGeometry>
        </mxCell>
        <mxCell id="EHvD2iD8Bu7HrQftm9rs-164" value="" style="group" vertex="1" connectable="0" parent="EHvD2iD8Bu7HrQftm9rs-176">
          <mxGeometry y="60" width="390" height="30" as="geometry" />
        </mxCell>
        <mxCell id="EHvD2iD8Bu7HrQftm9rs-165" value="Deconvolução 2x2" style="text;strokeColor=none;fillColor=none;align=left;verticalAlign=middle;whiteSpace=wrap;rounded=0;fontStyle=1;fontColor=#FFB570;labelBorderColor=none;labelBackgroundColor=none;html=1;fontSize=14;" vertex="1" parent="EHvD2iD8Bu7HrQftm9rs-164">
          <mxGeometry x="60" width="330" height="30" as="geometry" />
        </mxCell>
        <mxCell id="EHvD2iD8Bu7HrQftm9rs-166" value="" style="shape=flexArrow;endArrow=classic;html=1;rounded=0;fillColor=#FFB570;strokeColor=none;endWidth=9.647956493419215;endSize=5.958199356913183;width=7.974276527331189;fontColor=#FFB570;" edge="1" parent="EHvD2iD8Bu7HrQftm9rs-164">
          <mxGeometry width="50" height="50" relative="1" as="geometry">
            <mxPoint y="15" as="sourcePoint" />
            <mxPoint x="50" y="14.830000000000013" as="targetPoint" />
          </mxGeometry>
        </mxCell>
        <mxCell id="EHvD2iD8Bu7HrQftm9rs-167" value="" style="group" vertex="1" connectable="0" parent="EHvD2iD8Bu7HrQftm9rs-176">
          <mxGeometry y="90" width="390" height="30" as="geometry" />
        </mxCell>
        <mxCell id="EHvD2iD8Bu7HrQftm9rs-168" value="Concatenação" style="text;strokeColor=none;fillColor=none;align=left;verticalAlign=middle;whiteSpace=wrap;rounded=0;fontStyle=1;fontColor=#666666;labelBorderColor=none;labelBackgroundColor=none;html=1;fontSize=14;" vertex="1" parent="EHvD2iD8Bu7HrQftm9rs-167">
          <mxGeometry x="60" width="330" height="30" as="geometry" />
        </mxCell>
        <mxCell id="EHvD2iD8Bu7HrQftm9rs-169" value="" style="shape=flexArrow;endArrow=classic;html=1;rounded=0;fillColor=#B3B3B3;strokeColor=none;endWidth=9.647956493419215;endSize=5.958199356913183;width=7.974276527331189;" edge="1" parent="EHvD2iD8Bu7HrQftm9rs-167">
          <mxGeometry width="50" height="50" relative="1" as="geometry">
            <mxPoint y="15" as="sourcePoint" />
            <mxPoint x="50" y="14.830000000000013" as="targetPoint" />
          </mxGeometry>
        </mxCell>
        <mxCell id="EHvD2iD8Bu7HrQftm9rs-170" value="" style="group" vertex="1" connectable="0" parent="EHvD2iD8Bu7HrQftm9rs-176">
          <mxGeometry y="120" width="390" height="30" as="geometry" />
        </mxCell>
        <mxCell id="EHvD2iD8Bu7HrQftm9rs-171" value="Convolução 1x1 + Sigmoide" style="text;strokeColor=none;fillColor=none;align=left;verticalAlign=middle;whiteSpace=wrap;rounded=0;fontStyle=1;fontColor=#A680B8;labelBorderColor=none;labelBackgroundColor=none;html=1;fontSize=14;" vertex="1" parent="EHvD2iD8Bu7HrQftm9rs-170">
          <mxGeometry x="60" width="330" height="30" as="geometry" />
        </mxCell>
        <mxCell id="EHvD2iD8Bu7HrQftm9rs-172" value="" style="shape=flexArrow;endArrow=classic;html=1;rounded=0;fillColor=#A680B8;strokeColor=none;endWidth=9.647956493419215;endSize=5.958199356913183;width=7.974276527331189;" edge="1" parent="EHvD2iD8Bu7HrQftm9rs-170">
          <mxGeometry width="50" height="50" relative="1" as="geometry">
            <mxPoint y="15" as="sourcePoint" />
            <mxPoint x="50" y="14.830000000000013" as="targetPoint" />
          </mxGeometry>
        </mxCell>
        <mxCell id="EHvD2iD8Bu7HrQftm9rs-177" value="" style="group" vertex="1" connectable="0" parent="1">
          <mxGeometry x="207.5" y="120" width="1075" height="590" as="geometry" />
        </mxCell>
        <mxCell id="EHvD2iD8Bu7HrQftm9rs-2" value="" style="rounded=0;whiteSpace=wrap;html=1;strokeColor=#000080;fillColor=#33FFFF;" vertex="1" parent="EHvD2iD8Bu7HrQftm9rs-177">
          <mxGeometry x="25" width="10" height="260" as="geometry" />
        </mxCell>
        <mxCell id="EHvD2iD8Bu7HrQftm9rs-3" value="" style="rounded=0;whiteSpace=wrap;html=1;strokeColor=#000080;fillColor=#6495ED;" vertex="1" parent="EHvD2iD8Bu7HrQftm9rs-177">
          <mxGeometry x="95" width="20" height="260" as="geometry" />
        </mxCell>
        <mxCell id="EHvD2iD8Bu7HrQftm9rs-22" value="" style="shape=flexArrow;endArrow=classic;html=1;rounded=0;fillColor=#67AB9F;strokeColor=none;endWidth=9.647956493419215;endSize=5.958199356913183;width=7.974276527331189;" edge="1" parent="EHvD2iD8Bu7HrQftm9rs-177">
          <mxGeometry width="50" height="50" relative="1" as="geometry">
            <mxPoint x="35" y="129.83999999999997" as="sourcePoint" />
            <mxPoint x="85" y="129.43999999999997" as="targetPoint" />
          </mxGeometry>
        </mxCell>
        <mxCell id="EHvD2iD8Bu7HrQftm9rs-24" value="" style="shape=flexArrow;endArrow=classic;html=1;rounded=0;fillColor=#67AB9F;strokeColor=none;endWidth=9.647956493419215;endSize=5.958199356913183;width=7.974276527331189;" edge="1" parent="EHvD2iD8Bu7HrQftm9rs-177">
          <mxGeometry width="50" height="50" relative="1" as="geometry">
            <mxPoint x="115" y="130.07" as="sourcePoint" />
            <mxPoint x="165" y="129.67" as="targetPoint" />
          </mxGeometry>
        </mxCell>
        <mxCell id="EHvD2iD8Bu7HrQftm9rs-25" value="" style="shape=flexArrow;endArrow=classic;html=1;rounded=0;fillColor=#EA6B66;strokeColor=none;endWidth=9.647956493419215;endSize=5.958199356913183;width=7.974276527331189;" edge="1" parent="EHvD2iD8Bu7HrQftm9rs-177">
          <mxGeometry width="50" height="50" relative="1" as="geometry">
            <mxPoint x="184.44" y="260" as="sourcePoint" />
            <mxPoint x="184.44" y="309.6" as="targetPoint" />
          </mxGeometry>
        </mxCell>
        <mxCell id="EHvD2iD8Bu7HrQftm9rs-26" value="" style="rounded=0;whiteSpace=wrap;html=1;strokeColor=#000080;fillColor=#6495ED;" vertex="1" parent="EHvD2iD8Bu7HrQftm9rs-177">
          <mxGeometry x="175" y="320" width="20" height="140" as="geometry" />
        </mxCell>
        <mxCell id="EHvD2iD8Bu7HrQftm9rs-31" value="16" style="text;html=1;strokeColor=none;fillColor=none;align=center;verticalAlign=middle;whiteSpace=wrap;rounded=0;fontColor=#000080;rotation=0;fontSize=15;" vertex="1" parent="EHvD2iD8Bu7HrQftm9rs-177">
          <mxGeometry x="45" y="90" width="30" height="30" as="geometry" />
        </mxCell>
        <mxCell id="EHvD2iD8Bu7HrQftm9rs-32" value="" style="rounded=0;whiteSpace=wrap;html=1;strokeColor=#000080;fillColor=#6495ED;" vertex="1" parent="EHvD2iD8Bu7HrQftm9rs-177">
          <mxGeometry x="175" width="20" height="260" as="geometry" />
        </mxCell>
        <mxCell id="EHvD2iD8Bu7HrQftm9rs-34" value="16" style="text;html=1;strokeColor=none;fillColor=none;align=center;verticalAlign=middle;whiteSpace=wrap;rounded=0;fontColor=#000080;rotation=0;fontSize=15;" vertex="1" parent="EHvD2iD8Bu7HrQftm9rs-177">
          <mxGeometry x="125" y="90" width="30" height="30" as="geometry" />
        </mxCell>
        <mxCell id="EHvD2iD8Bu7HrQftm9rs-36" value="$$128\times 128\times16$$" style="text;html=1;strokeColor=none;fillColor=none;align=center;verticalAlign=middle;whiteSpace=wrap;rounded=0;fontColor=#ffffff;rotation=-90;fontSize=15;" vertex="1" parent="EHvD2iD8Bu7HrQftm9rs-177">
          <mxGeometry x="155" y="375" width="60" height="30" as="geometry" />
        </mxCell>
        <mxCell id="EHvD2iD8Bu7HrQftm9rs-39" value="$$256\times256\times1$$" style="text;html=1;strokeColor=none;fillColor=none;align=center;verticalAlign=middle;whiteSpace=wrap;rounded=0;fontColor=#000080;rotation=-90;fontSize=15;" vertex="1" parent="EHvD2iD8Bu7HrQftm9rs-177">
          <mxGeometry x="-15" y="40" width="60" height="30" as="geometry" />
        </mxCell>
        <mxCell id="EHvD2iD8Bu7HrQftm9rs-40" value="" style="shape=flexArrow;endArrow=classic;html=1;rounded=0;fillColor=#67AB9F;strokeColor=none;endWidth=9.647956493419215;endSize=5.958199356913183;width=7.974276527331189;" edge="1" parent="EHvD2iD8Bu7HrQftm9rs-177">
          <mxGeometry width="50" height="50" relative="1" as="geometry">
            <mxPoint x="195" y="390.12" as="sourcePoint" />
            <mxPoint x="245" y="389.72" as="targetPoint" />
          </mxGeometry>
        </mxCell>
        <mxCell id="EHvD2iD8Bu7HrQftm9rs-43" value="" style="shape=flexArrow;endArrow=classic;html=1;rounded=0;fillColor=#67AB9F;strokeColor=none;endWidth=9.647956493419215;endSize=5.958199356913183;width=7.974276527331189;" edge="1" parent="EHvD2iD8Bu7HrQftm9rs-177">
          <mxGeometry width="50" height="50" relative="1" as="geometry">
            <mxPoint x="295" y="390.07" as="sourcePoint" />
            <mxPoint x="345" y="389.67" as="targetPoint" />
          </mxGeometry>
        </mxCell>
        <mxCell id="EHvD2iD8Bu7HrQftm9rs-47" value="" style="shape=flexArrow;endArrow=classic;html=1;rounded=0;fillColor=#EA6B66;strokeColor=none;endWidth=9.647956493419215;endSize=5.958199356913183;width=7.974276527331189;" edge="1" parent="EHvD2iD8Bu7HrQftm9rs-177">
          <mxGeometry width="50" height="50" relative="1" as="geometry">
            <mxPoint x="374.44000000000005" y="460" as="sourcePoint" />
            <mxPoint x="374.44000000000005" y="509.6" as="targetPoint" />
          </mxGeometry>
        </mxCell>
        <mxCell id="EHvD2iD8Bu7HrQftm9rs-48" value="32" style="text;html=1;strokeColor=none;fillColor=none;align=center;verticalAlign=middle;whiteSpace=wrap;rounded=0;fontColor=#000080;rotation=0;fontSize=15;" vertex="1" parent="EHvD2iD8Bu7HrQftm9rs-177">
          <mxGeometry x="205" y="350" width="30" height="30" as="geometry" />
        </mxCell>
        <mxCell id="EHvD2iD8Bu7HrQftm9rs-50" value="32" style="text;html=1;strokeColor=none;fillColor=none;align=center;verticalAlign=middle;whiteSpace=wrap;rounded=0;fontColor=#000080;rotation=0;fontSize=15;" vertex="1" parent="EHvD2iD8Bu7HrQftm9rs-177">
          <mxGeometry x="305" y="350" width="30" height="30" as="geometry" />
        </mxCell>
        <mxCell id="EHvD2iD8Bu7HrQftm9rs-57" value="" style="shape=flexArrow;endArrow=classic;html=1;rounded=0;fillColor=#67AB9F;strokeColor=none;endWidth=9.647956493419215;endSize=5.958199356913183;width=7.974276527331189;" edge="1" parent="EHvD2iD8Bu7HrQftm9rs-177">
          <mxGeometry width="50" height="50" relative="1" as="geometry">
            <mxPoint x="395" y="555.0699999999999" as="sourcePoint" />
            <mxPoint x="445" y="554.67" as="targetPoint" />
          </mxGeometry>
        </mxCell>
        <mxCell id="EHvD2iD8Bu7HrQftm9rs-72" value="64" style="text;html=1;strokeColor=none;fillColor=none;align=center;verticalAlign=middle;whiteSpace=wrap;rounded=0;fontColor=#000080;rotation=0;fontSize=15;" vertex="1" parent="EHvD2iD8Bu7HrQftm9rs-177">
          <mxGeometry x="405" y="520" width="30" height="30" as="geometry" />
        </mxCell>
        <mxCell id="EHvD2iD8Bu7HrQftm9rs-74" value="" style="shape=flexArrow;endArrow=classic;html=1;rounded=0;fillColor=#67AB9F;strokeColor=none;endWidth=9.647956493419215;endSize=5.958199356913183;width=7.974276527331189;" edge="1" parent="EHvD2iD8Bu7HrQftm9rs-177">
          <mxGeometry width="50" height="50" relative="1" as="geometry">
            <mxPoint x="525" y="554.8399999999999" as="sourcePoint" />
            <mxPoint x="575" y="554.4399999999999" as="targetPoint" />
          </mxGeometry>
        </mxCell>
        <mxCell id="EHvD2iD8Bu7HrQftm9rs-78" value="64" style="text;html=1;strokeColor=none;fillColor=none;align=center;verticalAlign=middle;whiteSpace=wrap;rounded=0;fontColor=#000080;rotation=0;fontSize=15;" vertex="1" parent="EHvD2iD8Bu7HrQftm9rs-177">
          <mxGeometry x="530" y="520" width="30" height="30" as="geometry" />
        </mxCell>
        <mxCell id="EHvD2iD8Bu7HrQftm9rs-80" value="" style="rounded=0;whiteSpace=wrap;html=1;strokeColor=#000080;fillColor=#FFFFFF;" vertex="1" parent="EHvD2iD8Bu7HrQftm9rs-177">
          <mxGeometry x="562" y="320" width="40" height="140" as="geometry" />
        </mxCell>
        <mxCell id="EHvD2iD8Bu7HrQftm9rs-81" value="" style="rounded=0;whiteSpace=wrap;html=1;strokeColor=#000080;fillColor=#6495ED;" vertex="1" parent="EHvD2iD8Bu7HrQftm9rs-177">
          <mxGeometry x="602" y="320" width="40" height="140" as="geometry" />
        </mxCell>
        <mxCell id="EHvD2iD8Bu7HrQftm9rs-82" value="" style="shape=flexArrow;endArrow=classic;html=1;rounded=0;fillColor=#B3B3B3;strokeColor=none;endWidth=9.647956493419215;endSize=5.958199356913183;width=7.974276527331189;" edge="1" parent="EHvD2iD8Bu7HrQftm9rs-177">
          <mxGeometry width="50" height="50" relative="1" as="geometry">
            <mxPoint x="395" y="389.56" as="sourcePoint" />
            <mxPoint x="555" y="389" as="targetPoint" />
          </mxGeometry>
        </mxCell>
        <mxCell id="EHvD2iD8Bu7HrQftm9rs-92" value="" style="rounded=0;whiteSpace=wrap;html=1;strokeColor=#000080;fillColor=#6495ED;" vertex="1" parent="EHvD2iD8Bu7HrQftm9rs-177">
          <mxGeometry x="815" width="20" height="260" as="geometry" />
        </mxCell>
        <mxCell id="EHvD2iD8Bu7HrQftm9rs-93" value="" style="rounded=0;whiteSpace=wrap;html=1;strokeColor=#000080;fillColor=default;" vertex="1" parent="EHvD2iD8Bu7HrQftm9rs-177">
          <mxGeometry x="795" width="20" height="260" as="geometry" />
        </mxCell>
        <mxCell id="EHvD2iD8Bu7HrQftm9rs-94" value="" style="shape=flexArrow;endArrow=classic;html=1;rounded=0;fillColor=#B3B3B3;strokeColor=none;endWidth=9.647956493419215;endSize=5.958199356913183;width=7.974276527331189;" edge="1" parent="EHvD2iD8Bu7HrQftm9rs-177">
          <mxGeometry width="50" height="50" relative="1" as="geometry">
            <mxPoint x="195" y="129.33000000000004" as="sourcePoint" />
            <mxPoint x="785" y="129.89" as="targetPoint" />
          </mxGeometry>
        </mxCell>
        <mxCell id="EHvD2iD8Bu7HrQftm9rs-95" value="$$256\times256\times16$$" style="text;html=1;strokeColor=none;fillColor=none;align=center;verticalAlign=middle;whiteSpace=wrap;rounded=0;fontColor=#ffffff;rotation=-90;fontSize=15;" vertex="1" parent="EHvD2iD8Bu7HrQftm9rs-177">
          <mxGeometry x="75" y="50" width="60" height="30" as="geometry" />
        </mxCell>
        <mxCell id="EHvD2iD8Bu7HrQftm9rs-100" value="$$256\times256\times16$$" style="text;html=1;strokeColor=none;fillColor=none;align=center;verticalAlign=middle;whiteSpace=wrap;rounded=0;fontColor=#ffffff;rotation=-90;fontSize=15;" vertex="1" parent="EHvD2iD8Bu7HrQftm9rs-177">
          <mxGeometry x="175" y="40" width="60" height="30" as="geometry" />
        </mxCell>
        <mxCell id="EHvD2iD8Bu7HrQftm9rs-104" value="" style="group" vertex="1" connectable="0" parent="EHvD2iD8Bu7HrQftm9rs-177">
          <mxGeometry x="255" y="320" width="40" height="140" as="geometry" />
        </mxCell>
        <mxCell id="EHvD2iD8Bu7HrQftm9rs-41" value="" style="rounded=0;whiteSpace=wrap;html=1;strokeColor=#000080;fillColor=#6495ED;" vertex="1" parent="EHvD2iD8Bu7HrQftm9rs-104">
          <mxGeometry width="40" height="140" as="geometry" />
        </mxCell>
        <mxCell id="EHvD2iD8Bu7HrQftm9rs-97" value="$$128\times 128\times32$$" style="text;html=1;strokeColor=none;fillColor=none;align=center;verticalAlign=middle;whiteSpace=wrap;rounded=0;fontColor=#FFFFFF;rotation=-90;fontSize=15;" vertex="1" parent="EHvD2iD8Bu7HrQftm9rs-104">
          <mxGeometry x="-10" y="55" width="60" height="30" as="geometry" />
        </mxCell>
        <mxCell id="EHvD2iD8Bu7HrQftm9rs-105" value="" style="group" vertex="1" connectable="0" parent="EHvD2iD8Bu7HrQftm9rs-177">
          <mxGeometry x="355" y="320" width="40" height="140" as="geometry" />
        </mxCell>
        <mxCell id="EHvD2iD8Bu7HrQftm9rs-46" value="" style="rounded=0;whiteSpace=wrap;html=1;strokeColor=#000080;fillColor=#6495ED;" vertex="1" parent="EHvD2iD8Bu7HrQftm9rs-105">
          <mxGeometry width="40" height="140" as="geometry" />
        </mxCell>
        <mxCell id="EHvD2iD8Bu7HrQftm9rs-102" value="$$128\times 128\times32$$" style="text;html=1;strokeColor=none;fillColor=none;align=center;verticalAlign=middle;whiteSpace=wrap;rounded=0;fontColor=#FFFFFF;rotation=-90;fontSize=15;" vertex="1" parent="EHvD2iD8Bu7HrQftm9rs-105">
          <mxGeometry x="-10" y="55" width="60" height="30" as="geometry" />
        </mxCell>
        <mxCell id="EHvD2iD8Bu7HrQftm9rs-106" value="" style="group" vertex="1" connectable="0" parent="EHvD2iD8Bu7HrQftm9rs-177">
          <mxGeometry x="352.7465412525884" y="520" width="44.506917494823256" height="70" as="geometry" />
        </mxCell>
        <mxCell id="EHvD2iD8Bu7HrQftm9rs-69" value="" style="rounded=0;whiteSpace=wrap;html=1;strokeColor=#000080;fillColor=#6495ED;" vertex="1" parent="EHvD2iD8Bu7HrQftm9rs-106">
          <mxGeometry x="2.253458747411628" width="40" height="70" as="geometry" />
        </mxCell>
        <mxCell id="EHvD2iD8Bu7HrQftm9rs-51" value="$$64^2\times32$$" style="text;html=1;strokeColor=none;fillColor=none;align=center;verticalAlign=middle;whiteSpace=wrap;rounded=0;fontColor=#FFFFFF;rotation=-75;fontSize=15;" vertex="1" parent="EHvD2iD8Bu7HrQftm9rs-106">
          <mxGeometry x="-7.746541252588372" y="20" width="60" height="30" as="geometry" />
        </mxCell>
        <mxCell id="EHvD2iD8Bu7HrQftm9rs-107" value="" style="group" vertex="1" connectable="0" parent="EHvD2iD8Bu7HrQftm9rs-177">
          <mxGeometry x="455" y="520" width="70" height="70" as="geometry" />
        </mxCell>
        <mxCell id="EHvD2iD8Bu7HrQftm9rs-56" value="" style="rounded=0;whiteSpace=wrap;html=1;strokeColor=#000080;fillColor=#6495ED;" vertex="1" parent="EHvD2iD8Bu7HrQftm9rs-107">
          <mxGeometry width="70" height="70" as="geometry" />
        </mxCell>
        <mxCell id="EHvD2iD8Bu7HrQftm9rs-99" value="$$64^2\times 64$$" style="text;html=1;strokeColor=none;fillColor=none;align=center;verticalAlign=middle;whiteSpace=wrap;rounded=0;fontColor=#FFFFFF;rotation=-45;fontSize=15;" vertex="1" parent="EHvD2iD8Bu7HrQftm9rs-107">
          <mxGeometry x="5" y="20" width="60" height="30" as="geometry" />
        </mxCell>
        <mxCell id="EHvD2iD8Bu7HrQftm9rs-108" value="" style="group" vertex="1" connectable="0" parent="EHvD2iD8Bu7HrQftm9rs-177">
          <mxGeometry x="586" y="520" width="70" height="70" as="geometry" />
        </mxCell>
        <mxCell id="EHvD2iD8Bu7HrQftm9rs-73" value="" style="rounded=0;whiteSpace=wrap;html=1;strokeColor=#000080;fillColor=#6495ED;" vertex="1" parent="EHvD2iD8Bu7HrQftm9rs-108">
          <mxGeometry width="70" height="70" as="geometry" />
        </mxCell>
        <mxCell id="EHvD2iD8Bu7HrQftm9rs-103" value="$$64^2\times 64$$" style="text;html=1;strokeColor=none;fillColor=none;align=center;verticalAlign=middle;whiteSpace=wrap;rounded=0;fontColor=#FFFFFF;rotation=-45;fontSize=15;" vertex="1" parent="EHvD2iD8Bu7HrQftm9rs-108">
          <mxGeometry x="5" y="20" width="60" height="30" as="geometry" />
        </mxCell>
        <mxCell id="EHvD2iD8Bu7HrQftm9rs-109" value="" style="shape=flexArrow;endArrow=classic;html=1;rounded=0;fillColor=#FFB570;strokeColor=none;endWidth=9.647956493419215;endSize=5.958199356913183;width=7.974276527331189;fontColor=#FFB570;" edge="1" parent="EHvD2iD8Bu7HrQftm9rs-177">
          <mxGeometry width="50" height="50" relative="1" as="geometry">
            <mxPoint x="620.4399999999999" y="520" as="sourcePoint" />
            <mxPoint x="620.4399999999999" y="470" as="targetPoint" />
            <Array as="points">
              <mxPoint x="620.4399999999999" y="500" />
            </Array>
          </mxGeometry>
        </mxCell>
        <mxCell id="EHvD2iD8Bu7HrQftm9rs-111" value="" style="shape=flexArrow;endArrow=classic;html=1;rounded=0;fillColor=#67AB9F;strokeColor=none;endWidth=9.647956493419215;endSize=5.958199356913183;width=7.974276527331189;" edge="1" parent="EHvD2iD8Bu7HrQftm9rs-177">
          <mxGeometry width="50" height="50" relative="1" as="geometry">
            <mxPoint x="642" y="385.12" as="sourcePoint" />
            <mxPoint x="692" y="384.72" as="targetPoint" />
          </mxGeometry>
        </mxCell>
        <mxCell id="EHvD2iD8Bu7HrQftm9rs-112" value="" style="shape=flexArrow;endArrow=classic;html=1;rounded=0;fillColor=#67AB9F;strokeColor=none;endWidth=9.647956493419215;endSize=5.958199356913183;width=7.974276527331189;" edge="1" parent="EHvD2iD8Bu7HrQftm9rs-177">
          <mxGeometry width="50" height="50" relative="1" as="geometry">
            <mxPoint x="745" y="385.07" as="sourcePoint" />
            <mxPoint x="795" y="384.67" as="targetPoint" />
          </mxGeometry>
        </mxCell>
        <mxCell id="EHvD2iD8Bu7HrQftm9rs-113" value="32" style="text;html=1;strokeColor=none;fillColor=none;align=center;verticalAlign=middle;whiteSpace=wrap;rounded=0;fontColor=#000080;rotation=0;fontSize=15;" vertex="1" parent="EHvD2iD8Bu7HrQftm9rs-177">
          <mxGeometry x="652" y="345" width="30" height="30" as="geometry" />
        </mxCell>
        <mxCell id="EHvD2iD8Bu7HrQftm9rs-114" value="32" style="text;html=1;strokeColor=none;fillColor=none;align=center;verticalAlign=middle;whiteSpace=wrap;rounded=0;fontColor=#000080;rotation=0;fontSize=15;" vertex="1" parent="EHvD2iD8Bu7HrQftm9rs-177">
          <mxGeometry x="755" y="345" width="30" height="30" as="geometry" />
        </mxCell>
        <mxCell id="EHvD2iD8Bu7HrQftm9rs-115" value="" style="group" vertex="1" connectable="0" parent="EHvD2iD8Bu7HrQftm9rs-177">
          <mxGeometry x="705" y="320" width="40" height="140" as="geometry" />
        </mxCell>
        <mxCell id="EHvD2iD8Bu7HrQftm9rs-116" value="" style="rounded=0;whiteSpace=wrap;html=1;strokeColor=#000080;fillColor=#6495ED;" vertex="1" parent="EHvD2iD8Bu7HrQftm9rs-115">
          <mxGeometry width="40" height="140" as="geometry" />
        </mxCell>
        <mxCell id="EHvD2iD8Bu7HrQftm9rs-117" value="$$128\times 128\times32$$" style="text;html=1;strokeColor=none;fillColor=none;align=center;verticalAlign=middle;whiteSpace=wrap;rounded=0;fontColor=#FFFFFF;rotation=-90;fontSize=15;" vertex="1" parent="EHvD2iD8Bu7HrQftm9rs-115">
          <mxGeometry x="-10" y="55" width="60" height="30" as="geometry" />
        </mxCell>
        <mxCell id="EHvD2iD8Bu7HrQftm9rs-118" value="" style="group" vertex="1" connectable="0" parent="EHvD2iD8Bu7HrQftm9rs-177">
          <mxGeometry x="805" y="320" width="40" height="140" as="geometry" />
        </mxCell>
        <mxCell id="EHvD2iD8Bu7HrQftm9rs-119" value="" style="rounded=0;whiteSpace=wrap;html=1;strokeColor=#000080;fillColor=#6495ED;" vertex="1" parent="EHvD2iD8Bu7HrQftm9rs-118">
          <mxGeometry width="40" height="140" as="geometry" />
        </mxCell>
        <mxCell id="EHvD2iD8Bu7HrQftm9rs-120" value="$$128\times 128\times32$$" style="text;html=1;strokeColor=none;fillColor=none;align=center;verticalAlign=middle;whiteSpace=wrap;rounded=0;fontColor=#FFFFFF;rotation=-90;fontSize=15;" vertex="1" parent="EHvD2iD8Bu7HrQftm9rs-118">
          <mxGeometry x="-10" y="55" width="60" height="30" as="geometry" />
        </mxCell>
        <mxCell id="EHvD2iD8Bu7HrQftm9rs-121" value="$$128\times 128\times32$$" style="text;html=1;strokeColor=none;fillColor=none;align=center;verticalAlign=middle;whiteSpace=wrap;rounded=0;fontColor=#FFFFFF;rotation=-90;fontSize=15;" vertex="1" parent="EHvD2iD8Bu7HrQftm9rs-177">
          <mxGeometry x="592" y="375" width="60" height="30" as="geometry" />
        </mxCell>
        <mxCell id="EHvD2iD8Bu7HrQftm9rs-122" value="$$128\times 128\times32$$" style="text;html=1;strokeColor=none;fillColor=none;align=center;verticalAlign=middle;whiteSpace=wrap;rounded=0;fontColor=#000080;rotation=-90;fontSize=15;" vertex="1" parent="EHvD2iD8Bu7HrQftm9rs-177">
          <mxGeometry x="552" y="375" width="60" height="30" as="geometry" />
        </mxCell>
        <mxCell id="EHvD2iD8Bu7HrQftm9rs-126" value="" style="shape=flexArrow;endArrow=classic;html=1;rounded=0;fillColor=#FFB570;strokeColor=none;endWidth=9.647956493419215;endSize=5.958199356913183;width=7.974276527331189;fontColor=#FFB570;" edge="1" parent="EHvD2iD8Bu7HrQftm9rs-177">
          <mxGeometry width="50" height="50" relative="1" as="geometry">
            <mxPoint x="824.44" y="320" as="sourcePoint" />
            <mxPoint x="824.44" y="270" as="targetPoint" />
            <Array as="points">
              <mxPoint x="824.44" y="300" />
            </Array>
          </mxGeometry>
        </mxCell>
        <mxCell id="EHvD2iD8Bu7HrQftm9rs-127" value="$$256\times256\times16$$" style="text;html=1;strokeColor=none;fillColor=none;align=center;verticalAlign=middle;whiteSpace=wrap;rounded=0;fontColor=#ffffff;rotation=-90;fontSize=15;" vertex="1" parent="EHvD2iD8Bu7HrQftm9rs-177">
          <mxGeometry x="795" y="50" width="60" height="30" as="geometry" />
        </mxCell>
        <mxCell id="EHvD2iD8Bu7HrQftm9rs-128" value="$$256\times256\times16$$" style="text;html=1;strokeColor=none;fillColor=none;align=center;verticalAlign=middle;whiteSpace=wrap;rounded=0;fontColor=#000080;rotation=-90;fontSize=15;" vertex="1" parent="EHvD2iD8Bu7HrQftm9rs-177">
          <mxGeometry x="775" y="50" width="60" height="30" as="geometry" />
        </mxCell>
        <mxCell id="EHvD2iD8Bu7HrQftm9rs-129" value="" style="shape=flexArrow;endArrow=classic;html=1;rounded=0;fillColor=#67AB9F;strokeColor=none;endWidth=9.647956493419215;endSize=5.958199356913183;width=7.974276527331189;" edge="1" parent="EHvD2iD8Bu7HrQftm9rs-177">
          <mxGeometry width="50" height="50" relative="1" as="geometry">
            <mxPoint x="835" y="129.84" as="sourcePoint" />
            <mxPoint x="885" y="129.44" as="targetPoint" />
          </mxGeometry>
        </mxCell>
        <mxCell id="EHvD2iD8Bu7HrQftm9rs-130" value="" style="rounded=0;whiteSpace=wrap;html=1;strokeColor=#000080;fillColor=#6495ED;" vertex="1" parent="EHvD2iD8Bu7HrQftm9rs-177">
          <mxGeometry x="895" width="20" height="260" as="geometry" />
        </mxCell>
        <mxCell id="EHvD2iD8Bu7HrQftm9rs-131" value="16" style="text;html=1;strokeColor=none;fillColor=none;align=center;verticalAlign=middle;whiteSpace=wrap;rounded=0;fontColor=#000080;rotation=0;fontSize=15;" vertex="1" parent="EHvD2iD8Bu7HrQftm9rs-177">
          <mxGeometry x="845" y="90" width="30" height="30" as="geometry" />
        </mxCell>
        <mxCell id="EHvD2iD8Bu7HrQftm9rs-132" value="$$256\times256\times16$$" style="text;html=1;strokeColor=none;fillColor=none;align=center;verticalAlign=middle;whiteSpace=wrap;rounded=0;fontColor=#ffffff;rotation=-90;fontSize=15;" vertex="1" parent="EHvD2iD8Bu7HrQftm9rs-177">
          <mxGeometry x="875" y="50" width="60" height="30" as="geometry" />
        </mxCell>
        <mxCell id="EHvD2iD8Bu7HrQftm9rs-133" value="" style="shape=flexArrow;endArrow=classic;html=1;rounded=0;fillColor=#67AB9F;strokeColor=none;endWidth=9.647956493419215;endSize=5.958199356913183;width=7.974276527331189;" edge="1" parent="EHvD2iD8Bu7HrQftm9rs-177">
          <mxGeometry width="50" height="50" relative="1" as="geometry">
            <mxPoint x="915" y="129.84" as="sourcePoint" />
            <mxPoint x="965" y="129.44" as="targetPoint" />
          </mxGeometry>
        </mxCell>
        <mxCell id="EHvD2iD8Bu7HrQftm9rs-134" value="" style="rounded=0;whiteSpace=wrap;html=1;strokeColor=#000080;fillColor=#6495ED;" vertex="1" parent="EHvD2iD8Bu7HrQftm9rs-177">
          <mxGeometry x="975" width="20" height="260" as="geometry" />
        </mxCell>
        <mxCell id="EHvD2iD8Bu7HrQftm9rs-135" value="16" style="text;html=1;strokeColor=none;fillColor=none;align=center;verticalAlign=middle;whiteSpace=wrap;rounded=0;fontColor=#000080;rotation=0;fontSize=15;" vertex="1" parent="EHvD2iD8Bu7HrQftm9rs-177">
          <mxGeometry x="925" y="90" width="30" height="30" as="geometry" />
        </mxCell>
        <mxCell id="EHvD2iD8Bu7HrQftm9rs-136" value="$$256\times256\times16$$" style="text;html=1;strokeColor=none;fillColor=none;align=center;verticalAlign=middle;whiteSpace=wrap;rounded=0;fontColor=#ffffff;rotation=-90;fontSize=15;" vertex="1" parent="EHvD2iD8Bu7HrQftm9rs-177">
          <mxGeometry x="955" y="50" width="60" height="30" as="geometry" />
        </mxCell>
        <mxCell id="EHvD2iD8Bu7HrQftm9rs-137" value="" style="shape=flexArrow;endArrow=classic;html=1;rounded=0;fillColor=#A680B8;strokeColor=none;endWidth=9.647956493419215;endSize=5.958199356913183;width=7.974276527331189;fontColor=#33FFFF;" edge="1" parent="EHvD2iD8Bu7HrQftm9rs-177">
          <mxGeometry width="50" height="50" relative="1" as="geometry">
            <mxPoint x="995" y="129.84" as="sourcePoint" />
            <mxPoint x="1045" y="129.44" as="targetPoint" />
          </mxGeometry>
        </mxCell>
        <mxCell id="EHvD2iD8Bu7HrQftm9rs-138" value="1" style="text;html=1;strokeColor=none;fillColor=none;align=center;verticalAlign=middle;whiteSpace=wrap;rounded=0;fontColor=#000080;rotation=0;fontSize=15;" vertex="1" parent="EHvD2iD8Bu7HrQftm9rs-177">
          <mxGeometry x="1005" y="90" width="30" height="30" as="geometry" />
        </mxCell>
        <mxCell id="EHvD2iD8Bu7HrQftm9rs-142" value="" style="rounded=0;whiteSpace=wrap;html=1;strokeColor=#000080;fillColor=#B5739D;" vertex="1" parent="EHvD2iD8Bu7HrQftm9rs-177">
          <mxGeometry x="1065" width="10" height="260" as="geometry" />
        </mxCell>
        <mxCell id="EHvD2iD8Bu7HrQftm9rs-143" value="$$256\times256\times1$$" style="text;html=1;strokeColor=none;fillColor=none;align=center;verticalAlign=middle;whiteSpace=wrap;rounded=0;fontColor=#000080;rotation=-90;fontSize=15;" vertex="1" parent="EHvD2iD8Bu7HrQftm9rs-177">
          <mxGeometry x="1025" y="40" width="60" height="30" as="geometry" />
        </mxCell>
        <mxCell id="EHvD2iD8Bu7HrQftm9rs-184" value="$$256\times256\times16$$" style="text;html=1;strokeColor=none;fillColor=none;align=center;verticalAlign=middle;whiteSpace=wrap;rounded=0;fontColor=#ffffff;rotation=-90;fontSize=15;" vertex="1" parent="EHvD2iD8Bu7HrQftm9rs-177">
          <mxGeometry x="155" y="50" width="60" height="30" as="geometry" />
        </mxCell>
      </root>
    </mxGraphModel>
  </diagram>
</mxfile>
